<svg xmlns="http://www.w3.org/2000/svg" width="93" height="70.84" viewBox="0 0 93 70.84"><g transform="translate(0 -61)"><g transform="translate(0 61)"><path d="M84.826,61H8.174A8.188,8.188,0,0,0,0,69.174v54.492a8.187,8.187,0,0,0,8.174,8.174H84.826A8.187,8.187,0,0,0,93,123.666V69.174A8.187,8.187,0,0,0,84.826,61ZM83.7,66.449,46.673,103.474,9.329,66.449ZM5.449,122.538V70.276L31.692,96.294ZM9.3,126.391l26.26-26.26,9.2,9.122a2.724,2.724,0,0,0,3.845-.008l8.972-8.972L83.7,126.391Zm78.248-3.853L61.433,96.42,87.551,70.3Z" transform="translate(0 -61)"/></g></g></svg>