<svg xmlns="http://www.w3.org/2000/svg" xmlns:xlink="http://www.w3.org/1999/xlink" width="1280" height="800" viewBox="0 0 1280 800">
  <defs>
    <clipPath id="clip-Custom_Size_1">
      <rect width="1280" height="800"/>
    </clipPath>
  </defs>
  <g id="Custom_Size_1" data-name="Custom Size – 1" clip-path="url(#clip-Custom_Size_1)">
    <rect width="1280" height="800" fill="#fff"/>
    <circle id="Ellipse_1" data-name="Ellipse 1" cx="11" cy="11" r="11" transform="translate(824 42)" fill="#dbdbdb"/>
    <circle id="Ellipse_2" data-name="Ellipse 2" cx="11" cy="11" r="11" transform="translate(106 498)" fill="#dbdbdb"/>
    <circle id="Ellipse_1-2" data-name="Ellipse 1" cx="11" cy="11" r="11" transform="translate(866 42)" fill="#dbdbdb"/>
    <circle id="Ellipse_3" data-name="Ellipse 3" cx="11" cy="11" r="11" transform="translate(148 498)" fill="#dbdbdb"/>
    <circle id="Ellipse_1-3" data-name="Ellipse 1" cx="11" cy="11" r="11" transform="translate(908 42)" fill="#dbdbdb"/>
    <circle id="Ellipse_4" data-name="Ellipse 4" cx="11" cy="11" r="11" transform="translate(190 498)" fill="#dbdbdb"/>
    <circle id="Ellipse_1-4" data-name="Ellipse 1" cx="11" cy="11" r="11" transform="translate(950 42)" fill="#dbdbdb"/>
    <circle id="Ellipse_5" data-name="Ellipse 5" cx="11" cy="11" r="11" transform="translate(232 498)" fill="#dbdbdb"/>
    <circle id="Ellipse_1-5" data-name="Ellipse 1" cx="11" cy="11" r="11" transform="translate(992 42)" fill="#dbdbdb"/>
    <circle id="Ellipse_6" data-name="Ellipse 6" cx="11" cy="11" r="11" transform="translate(274 498)" fill="#dbdbdb"/>
    <circle id="Ellipse_1-6" data-name="Ellipse 1" cx="11" cy="11" r="11" transform="translate(1034 42)" fill="#dbdbdb"/>
    <circle id="Ellipse_7" data-name="Ellipse 7" cx="11" cy="11" r="11" transform="translate(316 498)" fill="#dbdbdb"/>
    <circle id="Ellipse_1-7" data-name="Ellipse 1" cx="11" cy="11" r="11" transform="translate(1076 42)" fill="#dbdbdb"/>
    <circle id="Ellipse_8" data-name="Ellipse 8" cx="11" cy="11" r="11" transform="translate(358 498)" fill="#dbdbdb"/>
    <circle id="Ellipse_1-8" data-name="Ellipse 1" cx="11" cy="11" r="11" transform="translate(1118 42)" fill="#dbdbdb"/>
    <circle id="Ellipse_9" data-name="Ellipse 9" cx="11" cy="11" r="11" transform="translate(400 498)" fill="#dbdbdb"/>
    <circle id="Ellipse_1-9" data-name="Ellipse 1" cx="11" cy="11" r="11" transform="translate(1160 42)" fill="#dbdbdb"/>
    <circle id="Ellipse_10" data-name="Ellipse 10" cx="11" cy="11" r="11" transform="translate(442 498)" fill="#dbdbdb"/>
    <circle id="Ellipse_1-10" data-name="Ellipse 1" cx="11" cy="11" r="11" transform="translate(824 84)" fill="#dbdbdb"/>
    <circle id="Ellipse_11" data-name="Ellipse 11" cx="11" cy="11" r="11" transform="translate(106 540)" fill="#dbdbdb"/>
    <circle id="Ellipse_1-11" data-name="Ellipse 1" cx="11" cy="11" r="11" transform="translate(866 84)" fill="#dbdbdb"/>
    <circle id="Ellipse_12" data-name="Ellipse 12" cx="11" cy="11" r="11" transform="translate(148 540)" fill="#dbdbdb"/>
    <circle id="Ellipse_1-12" data-name="Ellipse 1" cx="11" cy="11" r="11" transform="translate(908 84)" fill="#dbdbdb"/>
    <circle id="Ellipse_13" data-name="Ellipse 13" cx="11" cy="11" r="11" transform="translate(190 540)" fill="#dbdbdb"/>
    <circle id="Ellipse_1-13" data-name="Ellipse 1" cx="11" cy="11" r="11" transform="translate(950 84)" fill="#dbdbdb"/>
    <circle id="Ellipse_14" data-name="Ellipse 14" cx="11" cy="11" r="11" transform="translate(232 540)" fill="#dbdbdb"/>
    <circle id="Ellipse_1-14" data-name="Ellipse 1" cx="11" cy="11" r="11" transform="translate(992 84)" fill="#dbdbdb"/>
    <circle id="Ellipse_15" data-name="Ellipse 15" cx="11" cy="11" r="11" transform="translate(274 540)" fill="#dbdbdb"/>
    <circle id="Ellipse_1-15" data-name="Ellipse 1" cx="11" cy="11" r="11" transform="translate(1034 84)" fill="#dbdbdb"/>
    <circle id="Ellipse_16" data-name="Ellipse 16" cx="11" cy="11" r="11" transform="translate(316 540)" fill="#dbdbdb"/>
    <circle id="Ellipse_1-16" data-name="Ellipse 1" cx="11" cy="11" r="11" transform="translate(1076 84)" fill="#dbdbdb"/>
    <circle id="Ellipse_17" data-name="Ellipse 17" cx="11" cy="11" r="11" transform="translate(358 540)" fill="#dbdbdb"/>
    <circle id="Ellipse_1-17" data-name="Ellipse 1" cx="11" cy="11" r="11" transform="translate(1118 84)" fill="#dbdbdb"/>
    <circle id="Ellipse_18" data-name="Ellipse 18" cx="11" cy="11" r="11" transform="translate(400 540)" fill="#dbdbdb"/>
    <circle id="Ellipse_1-18" data-name="Ellipse 1" cx="11" cy="11" r="11" transform="translate(1160 84)" fill="#dbdbdb"/>
    <circle id="Ellipse_19" data-name="Ellipse 19" cx="11" cy="11" r="11" transform="translate(442 540)" fill="#dbdbdb"/>
    <circle id="Ellipse_1-19" data-name="Ellipse 1" cx="11" cy="11" r="11" transform="translate(824 126)" fill="#dbdbdb"/>
    <circle id="Ellipse_20" data-name="Ellipse 20" cx="11" cy="11" r="11" transform="translate(106 582)" fill="#dbdbdb"/>
    <circle id="Ellipse_1-20" data-name="Ellipse 1" cx="11" cy="11" r="11" transform="translate(866 126)" fill="#dbdbdb"/>
    <circle id="Ellipse_21" data-name="Ellipse 21" cx="11" cy="11" r="11" transform="translate(148 582)" fill="#dbdbdb"/>
    <circle id="Ellipse_1-21" data-name="Ellipse 1" cx="11" cy="11" r="11" transform="translate(908 126)" fill="#dbdbdb"/>
    <circle id="Ellipse_22" data-name="Ellipse 22" cx="11" cy="11" r="11" transform="translate(190 582)" fill="#dbdbdb"/>
    <circle id="Ellipse_1-22" data-name="Ellipse 1" cx="11" cy="11" r="11" transform="translate(950 126)" fill="#dbdbdb"/>
    <circle id="Ellipse_23" data-name="Ellipse 23" cx="11" cy="11" r="11" transform="translate(232 582)" fill="#dbdbdb"/>
    <circle id="Ellipse_1-23" data-name="Ellipse 1" cx="11" cy="11" r="11" transform="translate(992 126)" fill="#dbdbdb"/>
    <circle id="Ellipse_24" data-name="Ellipse 24" cx="11" cy="11" r="11" transform="translate(274 582)" fill="#dbdbdb"/>
    <circle id="Ellipse_1-24" data-name="Ellipse 1" cx="11" cy="11" r="11" transform="translate(1034 126)" fill="#dbdbdb"/>
    <circle id="Ellipse_25" data-name="Ellipse 25" cx="11" cy="11" r="11" transform="translate(316 582)" fill="#dbdbdb"/>
    <circle id="Ellipse_1-25" data-name="Ellipse 1" cx="11" cy="11" r="11" transform="translate(1076 126)" fill="#dbdbdb"/>
    <circle id="Ellipse_26" data-name="Ellipse 26" cx="11" cy="11" r="11" transform="translate(358 582)" fill="#dbdbdb"/>
    <circle id="Ellipse_1-26" data-name="Ellipse 1" cx="11" cy="11" r="11" transform="translate(1118 126)" fill="#dbdbdb"/>
    <circle id="Ellipse_27" data-name="Ellipse 27" cx="11" cy="11" r="11" transform="translate(400 582)" fill="#dbdbdb"/>
    <circle id="Ellipse_1-27" data-name="Ellipse 1" cx="11" cy="11" r="11" transform="translate(1160 126)" fill="#dbdbdb"/>
    <circle id="Ellipse_28" data-name="Ellipse 28" cx="11" cy="11" r="11" transform="translate(442 582)" fill="#dbdbdb"/>
  </g>
</svg>
