<svg xmlns="http://www.w3.org/2000/svg" width="82" height="81.8" viewBox="0 0 82 81.8"><path d="M32.752,73.448v8.3L30.744,80.13a134.63,134.63,0,0,1-15.18-14.84C5.236,53.433,0,42.79,0,33.656v-.905a32.752,32.752,0,0,1,65.5,0v.905c0,.767-.041,1.546-.114,2.334l-6.405-5.843a26.361,26.361,0,0,0-52.594,2.6v.905c0,15.434,19.886,34.118,26.361,39.791ZM52.4,68.858h9.586V59.272H52.4ZM32.752,19.171a13.58,13.58,0,1,1-13.58,13.58A13.6,13.6,0,0,1,32.752,19.171Zm0,6.391a7.19,7.19,0,1,0,7.19,7.19A7.2,7.2,0,0,0,32.752,25.562ZM77.693,64.515l-1.8-1.639V73.136A8.674,8.674,0,0,1,67.232,81.8H47a8.674,8.674,0,0,1-8.664-8.663V62.876l-1.8,1.639-4.307-4.721,24.884-22.7L82,59.794Zm-8.187-7.469-12.39-11.3-12.39,11.3V73.135A2.276,2.276,0,0,0,47,75.408H67.232a2.276,2.276,0,0,0,2.273-2.273Zm0,0" transform="translate(0 0.001)"/></svg>