<svg xmlns="http://www.w3.org/2000/svg" width="81.8" height="81.8" viewBox="0 0 81.8 81.8"><g transform="translate(0 -0.001)"><g transform="translate(0 0.001)"><g transform="translate(0)"><path d="M251.195,27.481h.16a29.005,29.005,0,0,1,29.063,29.208A3.2,3.2,0,0,0,283.6,59.9h.016a3.2,3.2,0,0,0,3.195-3.18A35.4,35.4,0,0,0,251.356,21.09h-.176a3.2,3.2,0,0,0,.015,6.391Z" transform="translate(-208.378 -17.721)"/><path d="M81.792,65.913A12.1,12.1,0,0,0,78.081,57.6c-4.462-4.3-8.2-6.787-11.766-7.817-4.913-1.42-9.462-.129-13.523,3.837l-.018.018L48.45,57.928a64.335,64.335,0,0,1-13.618-10.54l-.421-.42A64.739,64.739,0,0,1,23.877,33.347l4.288-4.32.018-.018c3.966-4.06,5.257-8.61,3.837-13.523-1.03-3.565-3.514-7.3-7.817-11.766A12.159,12.159,0,0,0,7.328,3.112l-.092.082q-.064.057-.125.118C2.421,8-.038,14.569,0,22.3.066,35.438,7.286,50.461,19.313,62.488l.03.03a77.978,77.978,0,0,0,7.631,6.641,3.2,3.2,0,0,0,3.889-5.071,71.45,71.45,0,0,1-7.03-6.118l-.03-.03C12.956,47.081,6.448,33.749,6.391,22.27c-.03-5.955,1.762-10.926,5.181-14.381l.024-.022a5.748,5.748,0,0,1,8.006.289c8.273,8.579,7.674,12.629,4.018,16.378L17.7,30.5a3.2,3.2,0,0,0-.651,3.551c.15.338,3.788,8.376,12.847,17.436l.421.42c9.058,9.059,17.1,12.7,17.434,12.846A3.2,3.2,0,0,0,51.3,64.1l5.967-5.922c3.749-3.656,7.8-4.256,16.379,4.017a5.748,5.748,0,0,1,.289,8.005l-.023.025c-3.427,3.392-8.345,5.182-14.235,5.182h-.146a41.433,41.433,0,0,1-15.767-3.732,3.2,3.2,0,0,0-2.531,5.868A47.139,47.139,0,0,0,59.5,81.8h.179c7.655,0,14.157-2.457,18.811-7.111.041-.041.08-.082.118-.125l.083-.092A12.1,12.1,0,0,0,81.792,65.913Z" transform="translate(0 -0.001)"/><path d="M304.528,116.827a17.561,17.561,0,0,0-8.3-4.774,3.2,3.2,0,1,0-1.7,6.159,11.176,11.176,0,0,1,5.483,3.134,11.42,11.42,0,0,1,3.1,5.382l.046.156a3.2,3.2,0,1,0,6.128-1.814l-.043-.147A17.585,17.585,0,0,0,304.528,116.827Z" transform="translate(-245.502 -94.053)"/></g></g></g></svg>