<?xml version="1.0" encoding="utf-8"?>
<!-- Generator: Adobe Illustrator 14.0.0, SVG Export Plug-In . SVG Version: 6.00 Build 43363)  -->
<!DOCTYPE svg PUBLIC "-//W3C//DTD SVG 1.1//EN" "http://www.w3.org/Graphics/SVG/1.1/DTD/svg11.dtd">
<svg version="1.1" id="Capa_1" xmlns="http://www.w3.org/2000/svg" xmlns:xlink="http://www.w3.org/1999/xlink" x="0px" y="0px"
	 width="250px" height="100px" viewBox="0 0 250 100" enable-background="new 0 0 250 100" xml:space="preserve">
<path stroke="#000000" stroke-width="0.7" d="M12.838,36.836v-24.85h0.7v24.15h15.61v0.7H12.838z"/>
<path stroke="#000000" stroke-width="0.7" d="M41.118,11.986h0.63l10.815,24.85h-0.77l-3.864-8.89H34.916l-3.877,8.89h-0.77
	L41.118,11.986z M47.625,27.247l-6.192-14.245l-6.212,14.245H47.625z"/>
<path stroke="#000000" stroke-width="0.7" d="M219.867,11.986h0.631l10.814,24.85h-0.77l-3.865-8.89h-13.014l-3.877,8.89h-0.77
	L219.867,11.986z M226.375,27.247l-6.193-14.245l-6.211,14.245H226.375z"/>
<path stroke="#000000" stroke-width="0.7" d="M80.668,12.687h-9.521v24.15h-0.699v-24.15h-9.521v-0.7h19.74V12.687z"/>
<path stroke="#000000" stroke-width="0.7" d="M84.763,36.836v-24.85h10.115c1.026,0,1.965,0.216,2.817,0.647
	c0.852,0.432,1.587,1.01,2.205,1.732c0.618,0.724,1.103,1.529,1.452,2.415c0.35,0.887,0.525,1.797,0.525,2.73
	c0,1.284-0.269,2.479-0.805,3.588c-0.537,1.108-1.277,2.024-2.223,2.747c-0.945,0.724-2.048,1.132-3.308,1.225l6.3,9.765h-0.84
	l-6.301-9.765h-9.239v9.765H84.763z M85.463,26.372h9.66c1.26,0,2.339-0.333,3.237-0.998s1.592-1.522,2.082-2.573
	c0.49-1.05,0.735-2.146,0.735-3.29c0-1.19-0.28-2.304-0.84-3.342c-0.56-1.038-1.318-1.878-2.274-2.52
	c-0.957-0.642-2.02-0.962-3.186-0.962h-9.415V26.372z"/>
<path stroke="#000000" stroke-width="0.7" d="M107.232,36.836v-24.85h0.7v24.85H107.232z"/>
<path stroke="#000000" stroke-width="0.7" d="M131.172,36.134v0.7h-16.311v-24.85h15.994v0.7h-15.293v11.095h13.404v0.7h-13.404
	v11.655H131.172z"/>
<path stroke="#000000" stroke-width="0.7" d="M150.281,15.276c-0.49-0.537-0.986-0.985-1.488-1.348
	c-0.502-0.361-1.027-0.647-1.574-0.857c-0.549-0.21-1.133-0.361-1.75-0.455c-0.619-0.093-1.301-0.14-2.049-0.14
	c-2.822,0-4.871,0.542-6.143,1.627s-1.906,2.526-1.906,4.322c0,1.19,0.268,2.13,0.805,2.818c0.537,0.688,1.383,1.237,2.537,1.645
	s2.654,0.799,4.498,1.172c1.842,0.374,3.441,0.799,4.795,1.277c1.354,0.479,2.396,1.132,3.133,1.96
	c0.734,0.829,1.102,1.978,1.102,3.448c0,1.003-0.197,1.896-0.594,2.677c-0.398,0.782-0.975,1.435-1.734,1.96
	c-0.758,0.525-1.68,0.928-2.764,1.208c-1.086,0.28-2.305,0.42-3.658,0.42c-1.33,0-2.561-0.14-3.691-0.42
	c-1.133-0.28-2.188-0.706-3.168-1.277c-0.98-0.571-1.914-1.289-2.801-2.152l0.525-0.455c0.631,0.653,1.283,1.213,1.961,1.68
	c0.676,0.467,1.393,0.852,2.152,1.155c0.758,0.303,1.557,0.525,2.396,0.665c0.84,0.14,1.727,0.21,2.66,0.21
	c2.473,0,4.428-0.467,5.863-1.4c1.434-0.933,2.152-2.322,2.152-4.165c0-1.237-0.293-2.234-0.875-2.993
	c-0.584-0.758-1.488-1.376-2.713-1.855c-1.225-0.478-2.795-0.904-4.707-1.277c-1.82-0.35-3.373-0.741-4.656-1.173
	c-1.283-0.431-2.256-1.038-2.922-1.82c-0.664-0.781-0.998-1.86-0.998-3.237c0-1.447,0.355-2.666,1.068-3.658
	c0.711-0.991,1.721-1.744,3.027-2.257s2.834-0.77,4.584-0.77c1.051,0,2.014,0.1,2.889,0.297c0.875,0.199,1.68,0.514,2.414,0.945
	c0.736,0.432,1.43,1.01,2.084,1.733L150.281,15.276z"/>
<path stroke="#000000" stroke-width="0.7" d="M173.73,12.687h-9.52v24.15h-0.701v-24.15h-9.52v-0.7h19.74V12.687z"/>
<path stroke="#000000" stroke-width="0.7" d="M177.824,36.836v-24.85h0.701v24.85H177.824z"/>
<path stroke="#000000" stroke-width="0.7" d="M186.154,13.352v23.485h-0.699v-24.85h0.525l19.004,23.835V11.986h0.701v24.85h-0.807
	L186.154,13.352z"/>
<circle cx="236.029" cy="35.898" r="1.133"/>
<rect x="30.268" y="52" width="185.522" height="28.667"/>
<path fill="#FFFFFF" stroke="#FFFFFF" stroke-width="0.8" d="M37.215,73.307v-14.2h5.78c0.587,0,1.124,0.123,1.61,0.37
	c0.486,0.247,0.906,0.577,1.26,0.99c0.353,0.413,0.63,0.873,0.83,1.38s0.3,1.027,0.3,1.561c0,0.732-0.153,1.416-0.46,2.049
	c-0.307,0.634-0.73,1.157-1.27,1.57c-0.54,0.414-1.17,0.646-1.89,0.7l3.6,5.58h-0.48l-3.6-5.58h-5.28v5.58H37.215z M37.615,67.327
	h5.52c0.72,0,1.336-0.19,1.85-0.57c0.513-0.381,0.91-0.87,1.19-1.471c0.28-0.6,0.42-1.227,0.42-1.879c0-0.681-0.16-1.317-0.48-1.91
	c-0.32-0.594-0.753-1.074-1.3-1.44c-0.547-0.366-1.153-0.55-1.82-0.55h-5.38V67.327z"/>
<path fill="#FFFFFF" stroke="#FFFFFF" stroke-width="0.8" d="M59.375,72.906v0.4h-9.32v-14.2h9.14v0.4h-8.74v6.34h7.66v0.4h-7.66
	v6.659H59.375z"/>
<path fill="#FFFFFF" stroke="#FFFFFF" stroke-width="0.8" d="M62.395,73.307v-14.2h0.4v13.8h8.92v0.4H62.395z"/>
<path fill="#FFFFFF" stroke="#FFFFFF" stroke-width="0.8" d="M78.675,73.406c-0.974,0-1.867-0.203-2.68-0.609
	c-0.813-0.407-1.513-0.95-2.1-1.63c-0.587-0.681-1.04-1.45-1.36-2.311c-0.32-0.859-0.48-1.743-0.48-2.65
	c0-0.945,0.167-1.85,0.5-2.709c0.333-0.86,0.8-1.627,1.4-2.301c0.6-0.673,1.303-1.206,2.11-1.6c0.806-0.393,1.676-0.59,2.61-0.59
	c0.986,0,1.883,0.207,2.69,0.619c0.807,0.414,1.5,0.968,2.08,1.66c0.58,0.693,1.029,1.467,1.35,2.32s0.48,1.721,0.48,2.6
	c0,0.961-0.168,1.871-0.5,2.73c-0.334,0.86-0.801,1.627-1.4,2.3c-0.6,0.674-1.301,1.204-2.1,1.59
	C80.475,73.214,79.607,73.406,78.675,73.406z M72.455,66.206c0,0.881,0.153,1.728,0.46,2.541c0.307,0.813,0.74,1.54,1.3,2.18
	s1.22,1.146,1.98,1.52c0.76,0.374,1.586,0.561,2.48,0.561c0.92,0,1.76-0.193,2.521-0.58c0.76-0.387,1.412-0.906,1.959-1.561
	c0.547-0.652,0.971-1.383,1.271-2.189s0.45-1.63,0.45-2.471c0-0.879-0.157-1.727-0.471-2.539c-0.313-0.813-0.75-1.541-1.31-2.18
	c-0.56-0.641-1.217-1.147-1.97-1.521c-0.754-0.373-1.57-0.56-2.45-0.56c-0.92,0-1.764,0.193-2.53,0.58s-1.423,0.906-1.97,1.56
	c-0.547,0.653-0.97,1.384-1.27,2.19C72.604,64.544,72.455,65.366,72.455,66.206z"/>
<path fill="#FFFFFF" stroke="#FFFFFF" stroke-width="0.8" d="M86.135,72.207c0.387,0.253,0.816,0.449,1.29,0.59
	c0.474,0.14,0.997,0.21,1.569,0.21c0.854,0,1.533-0.152,2.041-0.456c0.506-0.304,0.887-0.75,1.14-1.339
	c0.253-0.588,0.42-1.299,0.5-2.131c0.08-0.833,0.12-1.771,0.12-2.816v-7.158h0.4v7.16c0,1.071-0.047,2.043-0.141,2.916
	c-0.094,0.872-0.279,1.626-0.561,2.261c-0.279,0.635-0.699,1.12-1.26,1.458c-0.56,0.337-1.307,0.505-2.24,0.505
	c-0.613,0-1.173-0.073-1.68-0.22s-0.973-0.366-1.4-0.66L86.135,72.207z"/>
<path fill="#FFFFFF" stroke="#FFFFFF" stroke-width="0.8" d="M106.295,72.906v0.4h-9.32v-14.2h9.141v0.4h-8.74v6.34h7.66v0.4h-7.66
	v6.659H106.295z"/>
<path fill="#FFFFFF" stroke="#FFFFFF" stroke-width="0.8" d="M117.215,60.987c-0.281-0.307-0.564-0.564-0.851-0.771
	c-0.287-0.206-0.587-0.37-0.899-0.49c-0.314-0.12-0.647-0.206-1-0.26c-0.354-0.054-0.744-0.08-1.171-0.08
	c-1.613,0-2.783,0.31-3.51,0.93c-0.728,0.62-1.09,1.444-1.09,2.47c0,0.681,0.153,1.217,0.46,1.61s0.79,0.707,1.449,0.94
	c0.66,0.233,1.518,0.457,2.57,0.67c1.054,0.213,1.967,0.457,2.74,0.73s1.37,0.646,1.79,1.119c0.42,0.474,0.63,1.131,0.63,1.971
	c0,0.573-0.113,1.083-0.34,1.529c-0.227,0.447-0.557,0.82-0.99,1.12s-0.96,0.53-1.58,0.69c-0.619,0.159-1.316,0.239-2.09,0.239
	c-0.76,0-1.463-0.08-2.109-0.239c-0.647-0.16-1.25-0.403-1.811-0.73c-0.561-0.326-1.094-0.736-1.6-1.229l0.3-0.261
	c0.36,0.374,0.733,0.693,1.12,0.96c0.387,0.268,0.797,0.487,1.23,0.66c0.433,0.174,0.889,0.3,1.369,0.38s0.986,0.12,1.52,0.12
	c1.414,0,2.531-0.267,3.351-0.8c0.82-0.533,1.229-1.326,1.229-2.38c0-0.706-0.166-1.276-0.5-1.71
	c-0.333-0.434-0.85-0.787-1.549-1.061c-0.701-0.272-1.598-0.516-2.69-0.729c-1.04-0.2-1.927-0.423-2.66-0.67s-1.29-0.593-1.67-1.04
	s-0.57-1.063-0.57-1.85c0-0.827,0.203-1.523,0.61-2.09c0.406-0.567,0.982-0.997,1.73-1.291c0.746-0.293,1.619-0.439,2.619-0.439
	c0.6,0,1.15,0.057,1.65,0.17s0.96,0.293,1.38,0.54s0.816,0.577,1.19,0.989L117.215,60.987z"/>
<path fill="#FFFFFF" stroke="#FFFFFF" stroke-width="0.8" d="M151.035,72.357c0.387,0.253,0.818,0.449,1.291,0.59
	c0.473,0.14,0.996,0.21,1.57,0.21c0.854,0,1.533-0.152,2.039-0.456c0.508-0.304,0.887-0.75,1.141-1.339
	c0.254-0.588,0.42-1.299,0.5-2.131c0.08-0.833,0.119-1.771,0.119-2.816v-7.158h0.4v7.16c0,1.071-0.047,2.043-0.141,2.916
	c-0.092,0.872-0.279,1.626-0.559,2.261c-0.281,0.635-0.701,1.12-1.26,1.458c-0.561,0.337-1.307,0.505-2.24,0.505
	c-0.613,0-1.174-0.073-1.68-0.22c-0.508-0.146-0.975-0.366-1.4-0.66L151.035,72.357z"/>
<path fill="#FFFFFF" stroke="#FFFFFF" stroke-width="0.8" d="M167.477,73.557c-0.975,0-1.867-0.203-2.68-0.609
	c-0.814-0.407-1.514-0.95-2.102-1.63c-0.586-0.681-1.039-1.45-1.359-2.311c-0.32-0.859-0.48-1.743-0.48-2.65
	c0-0.945,0.168-1.85,0.5-2.709c0.334-0.86,0.801-1.627,1.4-2.301c0.6-0.673,1.303-1.206,2.109-1.6
	c0.807-0.393,1.678-0.59,2.611-0.59c0.986,0,1.883,0.207,2.689,0.619c0.807,0.414,1.5,0.968,2.08,1.66
	c0.58,0.693,1.029,1.467,1.35,2.32s0.48,1.721,0.48,2.6c0,0.961-0.168,1.871-0.5,2.73c-0.334,0.86-0.801,1.627-1.4,2.3
	c-0.6,0.674-1.299,1.204-2.1,1.59C169.275,73.364,168.408,73.557,167.477,73.557z M161.256,66.356c0,0.881,0.152,1.728,0.461,2.541
	c0.307,0.813,0.738,1.54,1.299,2.18s1.221,1.146,1.98,1.52c0.76,0.374,1.586,0.561,2.48,0.561c0.92,0,1.76-0.193,2.52-0.58
	s1.412-0.906,1.959-1.561c0.547-0.652,0.971-1.383,1.271-2.189c0.299-0.807,0.449-1.63,0.449-2.471c0-0.879-0.156-1.727-0.471-2.539
	c-0.313-0.813-0.75-1.541-1.309-2.18c-0.561-0.641-1.217-1.147-1.971-1.521s-1.57-0.56-2.449-0.56c-0.92,0-1.764,0.193-2.531,0.58
	c-0.766,0.387-1.422,0.906-1.969,1.56s-0.971,1.384-1.271,2.19C161.406,64.694,161.256,65.517,161.256,66.356z"/>
<path fill="#FFFFFF" stroke="#FFFFFF" stroke-width="0.8" d="M174.996,59.257l5.48,8.24l5.5-8.24h0.461l-5.762,8.7v5.5h-0.398v-5.54
	l-5.74-8.66H174.996z"/>
<path fill="#FFFFFF" stroke="#FFFFFF" stroke-width="0.8" d="M191.816,59.257h0.359l6.18,14.2h-0.439l-2.207-5.08h-7.438
	l-2.215,5.08h-0.439L191.816,59.257z M195.535,67.978l-3.539-8.141l-3.549,8.141H195.535z"/>
<path fill="#FFFFFF" stroke="#FFFFFF" stroke-width="0.8" d="M208.697,61.138c-0.279-0.307-0.564-0.564-0.85-0.771
	c-0.287-0.206-0.588-0.37-0.9-0.49c-0.314-0.12-0.646-0.206-1-0.26s-0.744-0.08-1.17-0.08c-1.613,0-2.783,0.31-3.51,0.93
	s-1.09,1.444-1.09,2.47c0,0.681,0.152,1.217,0.459,1.61s0.791,0.707,1.451,0.94s1.516,0.457,2.568,0.67
	c1.055,0.213,1.967,0.457,2.74,0.73s1.371,0.646,1.791,1.119c0.42,0.474,0.629,1.131,0.629,1.971c0,0.573-0.113,1.083-0.34,1.529
	c-0.227,0.447-0.557,0.82-0.99,1.12s-0.959,0.53-1.58,0.69c-0.619,0.159-1.316,0.239-2.09,0.239c-0.76,0-1.463-0.08-2.109-0.239
	c-0.646-0.16-1.25-0.403-1.811-0.73c-0.559-0.326-1.094-0.736-1.6-1.229l0.301-0.261c0.359,0.374,0.732,0.693,1.119,0.96
	c0.387,0.268,0.797,0.487,1.23,0.66c0.434,0.174,0.891,0.3,1.369,0.38c0.48,0.08,0.986,0.12,1.521,0.12
	c1.412,0,2.529-0.267,3.35-0.8s1.23-1.326,1.23-2.38c0-0.706-0.168-1.276-0.5-1.71c-0.334-0.434-0.852-0.787-1.551-1.061
	c-0.699-0.272-1.598-0.516-2.689-0.729c-1.041-0.2-1.928-0.423-2.66-0.67c-0.734-0.247-1.291-0.593-1.67-1.04
	c-0.381-0.447-0.57-1.063-0.57-1.85c0-0.827,0.203-1.523,0.609-2.09c0.406-0.567,0.984-0.997,1.73-1.291
	c0.746-0.293,1.619-0.439,2.619-0.439c0.602,0,1.15,0.057,1.65,0.17s0.961,0.293,1.381,0.54s0.816,0.577,1.189,0.989L208.697,61.138
	z"/>
<g>
	<path fill="#FFFFFF" stroke="#FFFFFF" stroke-width="0.8" d="M140.305,73.457l-7.379-7.723c-0.588-0.605-1.055-1.125-1.4-1.561
		c-0.348-0.434-0.598-0.822-0.75-1.165c-0.154-0.342-0.23-0.672-0.23-0.987c0-0.501,0.146-0.968,0.44-1.402
		c0.293-0.435,0.692-0.787,1.2-1.057c0.506-0.271,1.072-0.405,1.699-0.405c0.587,0,1.104,0.115,1.551,0.346
		c0.446,0.23,0.797,0.536,1.05,0.918s0.38,0.804,0.38,1.265c0,0.553-0.177,1.061-0.529,1.521c-0.354,0.461-0.811,0.899-1.371,1.313
		c-0.56,0.415-1.146,0.833-1.76,1.255c-0.587,0.395-1.14,0.803-1.66,1.224c-0.52,0.422-0.939,0.876-1.26,1.362
		c-0.32,0.487-0.48,1.046-0.48,1.678c0,0.725,0.207,1.316,0.621,1.777c0.412,0.46,0.926,0.806,1.539,1.036s1.227,0.346,1.84,0.346
		c0.827,0,1.57-0.184,2.23-0.55c0.66-0.367,1.223-0.86,1.689-1.48s0.827-1.316,1.08-2.09c0.254-0.773,0.381-1.566,0.381-2.38h0.4
		c0,0.84-0.135,1.667-0.4,2.479c-0.268,0.813-0.657,1.55-1.17,2.21c-0.514,0.66-1.127,1.188-1.84,1.58
		c-0.714,0.394-1.523,0.59-2.431,0.59c-0.72,0-1.413-0.135-2.08-0.404c-0.667-0.271-1.21-0.672-1.63-1.205s-0.63-1.182-0.63-1.946
		c0-0.671,0.163-1.264,0.489-1.777c0.327-0.514,0.764-0.987,1.311-1.422s1.146-0.869,1.801-1.304
		c0.706-0.475,1.319-0.908,1.84-1.303c0.52-0.395,0.92-0.789,1.199-1.185c0.28-0.395,0.42-0.822,0.42-1.283
		c0-0.618-0.246-1.134-0.74-1.549c-0.492-0.414-1.113-0.622-1.859-0.622c-0.547,0-1.04,0.112-1.48,0.336
		c-0.439,0.224-0.789,0.522-1.049,0.897c-0.261,0.375-0.391,0.793-0.391,1.254c0,0.237,0.057,0.497,0.17,0.779
		c0.113,0.283,0.326,0.635,0.641,1.056c0.313,0.422,0.775,0.948,1.389,1.579l7.701,7.999H140.305z"/>
</g>
</svg>
