<?xml version="1.0"?>
<svg xmlns="http://www.w3.org/2000/svg" xmlns:xlink="http://www.w3.org/1999/xlink" xmlns:svgjs="http://svgjs.com/svgjs" version="1.1" width="512" height="512" x="0" y="0" viewBox="0 0 51.937 51.937" style="enable-background:new 0 0 512 512" xml:space="preserve"><g>
<g xmlns="http://www.w3.org/2000/svg">
	<path style="" d="M36.347,49.084c-2.404,0.381-5.396,0.855-8.928,0.855c-2.436,0-4.066-0.584-4.847-1.737   c-0.052-0.076-0.097-0.153-0.139-0.232c-0.07-0.132,1.235-0.267,2.858-0.599c5.687-1.161,9.849-5.031,9.849-11.244   c0-1.831-3.873-13.422-3.799-15.952c0.048-1.656,0.884-4.148,1.304-5.731c0.248-0.936,0.381-3.919,0.381-4.934   c0-6.357-5.152-9.51-11.51-9.51s-11.51,3.153-11.51,9.51c0,0.996,0.128,3.962,0.366,4.883c0.404,1.558,1.213,4.034,1.259,5.69   c0.072,2.611-3.739,14.297-3.739,16.043c0,6.027,3.916,9.856,9.342,11.141c1.612,0.381,3.055,0.826,3.251,1.272   c0.115,0.263,0.255,0.521,0.424,0.772c1.173,1.743,3.363,2.626,6.51,2.626c3.688,0,6.768-0.488,9.241-0.879   c3.592-0.571,5.094-0.709,5.447,0.23c0.15,0.401,0.532,0.649,0.937,0.649c0.117,0,0.235-0.021,0.352-0.064   c0.517-0.194,0.778-0.771,0.585-1.288C43.02,48.027,40.22,48.47,36.347,49.084z M18.593,9.32c0.794-1.039,1.924-2.351,1.924-3.637   V3.356c0-0.552,0.447-1,1-1s1,0.448,1,1c0,0,0,1.042,0,2.328s1.13,2.598,1.924,3.637c0.466,0.611,0.743,1.372,0.743,2.202   s-0.277,1.592-0.743,2.202c-0.794,1.039-1.924,2.653-1.924,4.309v7.113c0,0.552-0.447,1-1,1s-1-0.448-1-1v-7.113   c0-1.657-1.13-3.271-1.924-4.309c-0.466-0.61-0.743-1.372-0.743-2.202C17.85,10.692,18.127,9.931,18.593,9.32z" fill="#ffffff" data-original="#010002"/>
</g>
<g xmlns="http://www.w3.org/2000/svg">
</g>
<g xmlns="http://www.w3.org/2000/svg">
</g>
<g xmlns="http://www.w3.org/2000/svg">
</g>
<g xmlns="http://www.w3.org/2000/svg">
</g>
<g xmlns="http://www.w3.org/2000/svg">
</g>
<g xmlns="http://www.w3.org/2000/svg">
</g>
<g xmlns="http://www.w3.org/2000/svg">
</g>
<g xmlns="http://www.w3.org/2000/svg">
</g>
<g xmlns="http://www.w3.org/2000/svg">
</g>
<g xmlns="http://www.w3.org/2000/svg">
</g>
<g xmlns="http://www.w3.org/2000/svg">
</g>
<g xmlns="http://www.w3.org/2000/svg">
</g>
<g xmlns="http://www.w3.org/2000/svg">
</g>
<g xmlns="http://www.w3.org/2000/svg">
</g>
<g xmlns="http://www.w3.org/2000/svg">
</g>
</g></svg>
